<svg width="1021" height="114" viewBox="0 0 1021 114" fill="none" xmlns="http://www.w3.org/2000/svg">
<path d="M48.342 26.972L53.984 35.838L10.77 62.188L53.984 88.6L47.846 97.28L0.54 67.706V56.546L48.342 26.972ZM126.538 15.564V25.174H107.752V91.328H126.538V101H76.5656V91.328H95.3516V25.174H76.5656V15.564H126.538ZM186.753 101L157.923 26.91C158.006 27.9847 158.13 29.6587 158.295 31.932C158.46 34.2053 158.646 36.8713 158.853 39.93C159.06 42.9887 159.225 46.2333 159.349 49.664C159.514 53.0947 159.597 56.5047 159.597 59.894V101H148.437V15.564H164.743L193.883 89.84C193.8 88.4347 193.614 86.0993 193.325 82.834C193.036 79.5273 192.767 75.6213 192.519 71.116C192.312 66.5693 192.209 61.754 192.209 56.67V15.564H203.369V101H186.753ZM282.185 58.344C282.185 67.024 280.986 74.6913 278.589 81.346C276.191 88.0007 272.616 93.2087 267.863 96.97C263.151 100.69 257.281 102.55 250.255 102.55C243.269 102.55 237.4 100.731 232.647 97.094C227.893 93.4153 224.318 88.2693 221.921 81.656C219.523 75.0427 218.325 67.3133 218.325 58.468C218.325 49.7467 219.523 42.0587 221.921 35.404C224.318 28.708 227.893 23.4793 232.647 19.718C237.4 15.9153 243.269 14.014 250.255 14.014C257.281 14.014 263.151 15.8533 267.863 19.532C272.616 23.2107 276.191 28.3773 278.589 35.032C280.986 41.6453 282.185 49.416 282.185 58.344ZM269.351 58.344C269.351 47.1013 267.863 38.566 264.887 32.738C261.952 26.91 257.075 23.996 250.255 23.996C243.435 23.996 238.537 26.9307 235.561 32.8C232.626 38.6693 231.159 47.2253 231.159 58.468C231.159 69.6693 232.688 78.1633 235.747 83.95C238.805 89.6953 243.641 92.568 250.255 92.568C257.075 92.568 261.952 89.6747 264.887 83.888C267.863 78.1013 269.351 69.5867 269.351 58.344ZM324.854 88.166L346.802 15.564H359.264L331.302 101H317.91L289.948 15.564H303.154L324.854 88.166ZM954.152 15.44L1020.55 56.484V67.706L973.248 97.28L967.11 88.662L1010.32 62.188L948.51 24.368L954.152 15.44ZM910.132 113.958L900.584 109.68L953.532 0.497997L962.956 5.02399L910.132 113.958Z" fill="white"/>
<path d="M414.83 79.734H382.466L376.018 101H363.68L391.208 15.564H406.708L434.298 101H421.278L414.83 79.734ZM385.318 69.876H411.978L398.71 25.484L385.318 69.876ZM475.231 102.55C468.246 102.55 462.211 100.917 457.127 97.652C452.085 94.3453 448.179 89.406 445.409 82.834C442.681 76.262 441.317 68.0573 441.317 58.22C441.317 50.8627 442.309 44.4353 444.293 38.938C446.277 33.3993 448.964 28.7907 452.353 25.112C455.784 21.4333 459.669 18.664 464.009 16.804C468.391 14.944 472.958 14.014 477.711 14.014C483.415 14.014 488.148 14.8407 491.909 16.494C495.671 18.1473 499.225 20.524 502.573 23.624L495.381 31.064C492.777 28.6253 490.07 26.848 487.259 25.732C484.49 24.5747 481.369 23.996 477.897 23.996C474.839 23.996 471.904 24.5953 469.093 25.794C466.283 26.9927 463.761 28.9147 461.529 31.56C459.339 34.2053 457.582 37.7187 456.259 42.1C454.978 46.44 454.337 51.8133 454.337 58.22C454.337 66.3213 455.143 72.914 456.755 77.998C458.409 83.0407 460.847 86.74 464.071 89.096C467.337 91.4107 471.346 92.568 476.099 92.568C478.91 92.568 481.576 92.2373 484.097 91.576C486.619 90.9147 489.057 89.9433 491.413 88.662V63.676H475.603L474.177 53.88H503.503V94.924C499.577 97.0733 495.381 98.892 490.917 100.38C486.495 101.827 481.266 102.55 475.231 102.55ZM577.607 39.806C577.607 44.0633 576.698 47.7627 574.879 50.904C573.102 54.0453 570.684 56.67 567.625 58.778C564.566 60.8447 561.136 62.374 557.333 63.366L582.195 101H567.625L545.119 64.978H534.517V101H522.179V15.564H544.933C555.68 15.564 563.802 17.61 569.299 21.702C574.838 25.7527 577.607 31.7873 577.607 39.806ZM564.525 39.806C564.525 34.5567 562.996 30.7747 559.937 28.46C556.92 26.1453 552.27 24.988 545.987 24.988H534.517V55.616H546.111C551.98 55.616 556.506 54.4173 559.689 52.02C562.913 49.5813 564.525 45.51 564.525 39.806ZM653.943 58.344C653.943 67.024 652.744 74.6913 650.347 81.346C647.949 88.0007 644.374 93.2087 639.621 96.97C634.909 100.69 629.039 102.55 622.013 102.55C615.027 102.55 609.158 100.731 604.405 97.094C599.651 93.4153 596.076 88.2693 593.679 81.656C591.281 75.0427 590.083 67.3133 590.083 58.468C590.083 49.7467 591.281 42.0587 593.679 35.404C596.076 28.708 599.651 23.4793 604.405 19.718C609.158 15.9153 615.027 14.014 622.013 14.014C629.039 14.014 634.909 15.8533 639.621 19.532C644.374 23.2107 647.949 28.3773 650.347 35.032C652.744 41.6453 653.943 49.416 653.943 58.344ZM641.109 58.344C641.109 47.1013 639.621 38.566 636.645 32.738C633.71 26.91 628.833 23.996 622.013 23.996C615.193 23.996 610.295 26.9307 607.319 32.8C604.384 38.6693 602.917 47.2253 602.917 58.468C602.917 69.6693 604.446 78.1633 607.505 83.95C610.563 89.6953 615.399 92.568 622.013 92.568C628.833 92.568 633.71 89.6747 636.645 83.888C639.621 78.1013 641.109 69.5867 641.109 58.344Z" fill="#00BF63"/>
<path d="M702.316 25.794V101H690.04V25.794H663.752V15.564H729.038L727.736 25.794H702.316ZM760.734 25.236V52.702H792.106V62.436H760.734V91.39H799.112V101H748.396V15.564H798.182L796.756 25.236H760.734ZM852.259 14.014C857.922 14.014 862.675 14.7373 866.519 16.184C870.405 17.6307 874.042 19.7387 877.431 22.508L870.797 30.32C868.152 28.1293 865.341 26.538 862.365 25.546C859.431 24.5127 856.31 23.996 853.003 23.996C848.539 23.996 844.385 25.0913 840.541 27.282C836.739 29.4727 833.68 33.0687 831.365 38.07C829.051 43.0713 827.893 49.788 827.893 58.22C827.893 66.4453 828.989 73.0587 831.179 78.06C833.411 83.02 836.408 86.6367 840.169 88.91C843.972 91.142 848.209 92.258 852.879 92.258C857.591 92.258 861.456 91.5347 864.473 90.088C867.532 88.6 870.219 86.9053 872.533 85.004L878.671 92.878C875.985 95.482 872.492 97.7553 868.193 99.698C863.936 101.599 858.728 102.55 852.569 102.55C845.501 102.55 839.136 100.855 833.473 97.466C827.811 94.0767 823.326 89.096 820.019 82.524C816.754 75.9107 815.121 67.8093 815.121 58.22C815.121 48.6307 816.795 40.55 820.143 33.978C823.533 27.406 828.038 22.446 833.659 19.098C839.322 15.7087 845.522 14.014 852.259 14.014Z" fill="#00E7FF"/>
</svg>
