<svg width="902" height="221" viewBox="0 0 902 221" fill="none" xmlns="http://www.w3.org/2000/svg">
<path d="M287.113 183.805V138.492C287.113 135.302 286.625 132.568 285.648 130.289C284.672 128.01 283.142 126.22 281.059 124.918C278.975 123.616 276.273 122.965 272.953 122.965C270.154 122.965 267.712 123.453 265.629 124.43C263.611 125.406 262.048 126.806 260.941 128.629C259.9 130.452 259.379 132.698 259.379 135.367H228.91C228.91 130.615 229.984 126.188 232.133 122.086C234.281 117.984 237.341 114.371 241.312 111.246C245.349 108.121 250.167 105.712 255.766 104.02C261.365 102.262 267.647 101.383 274.613 101.383C282.882 101.383 290.238 102.783 296.684 105.582C303.194 108.316 308.337 112.451 312.113 117.984C315.889 123.453 317.777 130.354 317.777 138.688V182.926C317.777 189.306 318.135 194.319 318.852 197.965C319.633 201.546 320.74 204.671 322.172 207.34V209H291.41C289.978 205.94 288.904 202.164 288.188 197.672C287.471 193.115 287.113 188.492 287.113 183.805ZM290.922 144.547L291.117 161.344H275.98C272.595 161.344 269.665 161.767 267.191 162.613C264.783 163.46 262.829 164.632 261.332 166.129C259.835 167.561 258.728 169.254 258.012 171.207C257.361 173.095 257.035 175.178 257.035 177.457C257.035 179.605 257.556 181.559 258.598 183.316C259.639 185.009 261.072 186.344 262.895 187.32C264.717 188.297 266.833 188.785 269.242 188.785C273.214 188.785 276.599 188.004 279.398 186.441C282.263 184.879 284.477 182.991 286.039 180.777C287.602 178.499 288.383 176.383 288.383 174.43L295.707 187.125C294.535 189.729 293.103 192.431 291.41 195.23C289.717 197.965 287.569 200.536 284.965 202.945C282.361 205.289 279.203 207.21 275.492 208.707C271.846 210.204 267.452 210.953 262.309 210.953C255.668 210.953 249.646 209.618 244.242 206.949C238.839 204.215 234.509 200.471 231.254 195.719C228.064 190.966 226.469 185.497 226.469 179.312C226.469 173.779 227.478 168.863 229.496 164.566C231.514 160.27 234.542 156.624 238.578 153.629C242.68 150.634 247.823 148.388 254.008 146.891C260.193 145.328 267.419 144.547 275.688 144.547H290.922ZM392.809 183.512V103.336H423.473V209H394.762L392.809 183.512ZM396.031 161.93L404.43 161.734C404.43 168.831 403.583 175.374 401.891 181.363C400.263 187.353 397.789 192.561 394.469 196.988C391.214 201.415 387.145 204.866 382.262 207.34C377.444 209.749 371.812 210.953 365.367 210.953C360.159 210.953 355.374 210.237 351.012 208.805C346.715 207.307 343.004 204.996 339.879 201.871C336.754 198.681 334.345 194.612 332.652 189.664C330.96 184.651 330.113 178.661 330.113 171.695V103.336H360.582V171.891C360.582 174.625 360.908 176.969 361.559 178.922C362.275 180.81 363.219 182.372 364.391 183.609C365.628 184.846 367.125 185.758 368.883 186.344C370.706 186.93 372.691 187.223 374.84 187.223C380.243 187.223 384.475 186.116 387.535 183.902C390.66 181.624 392.841 178.596 394.078 174.82C395.38 170.979 396.031 166.682 396.031 161.93ZM468.426 59V209H437.859V59H468.426ZM515.527 103.336V209H484.961V103.336H515.527ZM483.105 75.9922C483.105 71.5651 484.668 67.9518 487.793 65.1523C490.918 62.2878 495.02 60.8555 500.098 60.8555C505.176 60.8555 509.277 62.2878 512.402 65.1523C515.592 67.9518 517.188 71.5651 517.188 75.9922C517.188 80.3542 515.592 83.9674 512.402 86.832C509.277 89.6315 505.176 91.0312 500.098 91.0312C495.02 91.0312 490.918 89.6315 487.793 86.832C484.668 83.9674 483.105 80.3542 483.105 75.9922ZM586.75 179.605C586.75 177.652 586.132 175.927 584.895 174.43C583.723 172.932 581.574 171.565 578.449 170.328C575.389 169.091 571.06 167.854 565.461 166.617C560.188 165.51 555.272 164.078 550.715 162.32C546.158 160.497 542.186 158.316 538.801 155.777C535.415 153.173 532.779 150.113 530.891 146.598C529.003 143.017 528.059 138.948 528.059 134.391C528.059 129.964 529.003 125.764 530.891 121.793C532.844 117.822 535.643 114.306 539.289 111.246C543 108.186 547.492 105.777 552.766 104.02C558.104 102.262 564.159 101.383 570.93 101.383C580.24 101.383 588.28 102.848 595.051 105.777C601.822 108.642 607.03 112.678 610.676 117.887C614.322 123.03 616.145 128.922 616.145 135.562H585.676C585.676 132.828 585.155 130.452 584.113 128.434C583.072 126.415 581.477 124.853 579.328 123.746C577.18 122.574 574.348 121.988 570.832 121.988C568.098 121.988 565.689 122.477 563.605 123.453C561.587 124.365 559.992 125.634 558.82 127.262C557.714 128.889 557.16 130.777 557.16 132.926C557.16 134.423 557.486 135.79 558.137 137.027C558.853 138.199 559.927 139.306 561.359 140.348C562.857 141.324 564.777 142.203 567.121 142.984C569.53 143.766 572.46 144.514 575.91 145.23C583.267 146.598 589.973 148.518 596.027 150.992C602.147 153.466 607.03 156.884 610.676 161.246C614.387 165.608 616.242 171.37 616.242 178.531C616.242 183.219 615.168 187.516 613.02 191.422C610.936 195.328 607.909 198.746 603.938 201.676C599.966 204.605 595.214 206.884 589.68 208.512C584.146 210.139 577.896 210.953 570.93 210.953C560.969 210.953 552.538 209.163 545.637 205.582C538.736 202.001 533.527 197.509 530.012 192.105C526.561 186.637 524.836 181.038 524.836 175.309H553.449C553.579 178.824 554.458 181.689 556.086 183.902C557.779 186.116 559.96 187.743 562.629 188.785C565.298 189.762 568.293 190.25 571.613 190.25C574.934 190.25 577.701 189.794 579.914 188.883C582.128 187.971 583.82 186.734 584.992 185.172C586.164 183.544 586.75 181.689 586.75 179.605ZM679.945 103.336V124.723H617.25V103.336H679.945ZM631.605 77.1641H662.172V175.895C662.172 178.824 662.53 181.07 663.246 182.633C663.962 184.195 665.134 185.302 666.762 185.953C668.389 186.539 670.473 186.832 673.012 186.832C674.835 186.832 676.397 186.767 677.699 186.637C679.001 186.507 680.206 186.344 681.312 186.148V208.219C678.708 209.065 675.941 209.716 673.012 210.172C670.082 210.693 666.892 210.953 663.441 210.953C656.866 210.953 651.169 209.879 646.352 207.73C641.599 205.582 637.953 202.197 635.414 197.574C632.875 192.887 631.605 186.799 631.605 179.312V77.1641ZM743.551 183.805V138.492C743.551 135.302 743.062 132.568 742.086 130.289C741.109 128.01 739.579 126.22 737.496 124.918C735.413 123.616 732.711 122.965 729.391 122.965C726.591 122.965 724.15 123.453 722.066 124.43C720.048 125.406 718.486 126.806 717.379 128.629C716.337 130.452 715.816 132.698 715.816 135.367H685.348C685.348 130.615 686.422 126.188 688.57 122.086C690.719 117.984 693.779 114.371 697.75 111.246C701.786 108.121 706.604 105.712 712.203 104.02C717.802 102.262 724.085 101.383 731.051 101.383C739.319 101.383 746.676 102.783 753.121 105.582C759.632 108.316 764.775 112.451 768.551 117.984C772.327 123.453 774.215 130.354 774.215 138.688V182.926C774.215 189.306 774.573 194.319 775.289 197.965C776.07 201.546 777.177 204.671 778.609 207.34V209H747.848C746.415 205.94 745.341 202.164 744.625 197.672C743.909 193.115 743.551 188.492 743.551 183.805ZM747.359 144.547L747.555 161.344H732.418C729.033 161.344 726.103 161.767 723.629 162.613C721.22 163.46 719.267 164.632 717.77 166.129C716.272 167.561 715.165 169.254 714.449 171.207C713.798 173.095 713.473 175.178 713.473 177.457C713.473 179.605 713.993 181.559 715.035 183.316C716.077 185.009 717.509 186.344 719.332 187.32C721.155 188.297 723.271 188.785 725.68 188.785C729.651 188.785 733.036 188.004 735.836 186.441C738.701 184.879 740.914 182.991 742.477 180.777C744.039 178.499 744.82 176.383 744.82 174.43L752.145 187.125C750.973 189.729 749.54 192.431 747.848 195.23C746.155 197.965 744.007 200.536 741.402 202.945C738.798 205.289 735.641 207.21 731.93 208.707C728.284 210.204 723.889 210.953 718.746 210.953C712.105 210.953 706.083 209.618 700.68 206.949C695.276 204.215 690.947 200.471 687.691 195.719C684.501 190.966 682.906 185.497 682.906 179.312C682.906 173.779 683.915 168.863 685.934 164.566C687.952 160.27 690.979 156.624 695.016 153.629C699.117 150.634 704.26 148.388 710.445 146.891C716.63 145.328 723.857 144.547 732.125 144.547H747.359Z" fill="#B6B6B6"/>
<path d="M287.113 183.805V138.492C287.113 135.302 286.625 132.568 285.648 130.289C284.672 128.01 283.142 126.22 281.059 124.918C278.975 123.616 276.273 122.965 272.953 122.965C270.154 122.965 267.712 123.453 265.629 124.43C263.611 125.406 262.048 126.806 260.941 128.629C259.9 130.452 259.379 132.698 259.379 135.367H228.91C228.91 130.615 229.984 126.188 232.133 122.086C234.281 117.984 237.341 114.371 241.312 111.246C245.349 108.121 250.167 105.712 255.766 104.02C261.365 102.262 267.647 101.383 274.613 101.383C282.882 101.383 290.238 102.783 296.684 105.582C303.194 108.316 308.337 112.451 312.113 117.984C315.889 123.453 317.777 130.354 317.777 138.688V182.926C317.777 189.306 318.135 194.319 318.852 197.965C319.633 201.546 320.74 204.671 322.172 207.34V209H291.41C289.978 205.94 288.904 202.164 288.188 197.672C287.471 193.115 287.113 188.492 287.113 183.805ZM290.922 144.547L291.117 161.344H275.98C272.595 161.344 269.665 161.767 267.191 162.613C264.783 163.46 262.829 164.632 261.332 166.129C259.835 167.561 258.728 169.254 258.012 171.207C257.361 173.095 257.035 175.178 257.035 177.457C257.035 179.605 257.556 181.559 258.598 183.316C259.639 185.009 261.072 186.344 262.895 187.32C264.717 188.297 266.833 188.785 269.242 188.785C273.214 188.785 276.599 188.004 279.398 186.441C282.263 184.879 284.477 182.991 286.039 180.777C287.602 178.499 288.383 176.383 288.383 174.43L295.707 187.125C294.535 189.729 293.103 192.431 291.41 195.23C289.717 197.965 287.569 200.536 284.965 202.945C282.361 205.289 279.203 207.21 275.492 208.707C271.846 210.204 267.452 210.953 262.309 210.953C255.668 210.953 249.646 209.618 244.242 206.949C238.839 204.215 234.509 200.471 231.254 195.719C228.064 190.966 226.469 185.497 226.469 179.312C226.469 173.779 227.478 168.863 229.496 164.566C231.514 160.27 234.542 156.624 238.578 153.629C242.68 150.634 247.823 148.388 254.008 146.891C260.193 145.328 267.419 144.547 275.688 144.547H290.922ZM392.809 183.512V103.336H423.473V209H394.762L392.809 183.512ZM396.031 161.93L404.43 161.734C404.43 168.831 403.583 175.374 401.891 181.363C400.263 187.353 397.789 192.561 394.469 196.988C391.214 201.415 387.145 204.866 382.262 207.34C377.444 209.749 371.812 210.953 365.367 210.953C360.159 210.953 355.374 210.237 351.012 208.805C346.715 207.307 343.004 204.996 339.879 201.871C336.754 198.681 334.345 194.612 332.652 189.664C330.96 184.651 330.113 178.661 330.113 171.695V103.336H360.582V171.891C360.582 174.625 360.908 176.969 361.559 178.922C362.275 180.81 363.219 182.372 364.391 183.609C365.628 184.846 367.125 185.758 368.883 186.344C370.706 186.93 372.691 187.223 374.84 187.223C380.243 187.223 384.475 186.116 387.535 183.902C390.66 181.624 392.841 178.596 394.078 174.82C395.38 170.979 396.031 166.682 396.031 161.93ZM468.426 59V209H437.859V59H468.426ZM515.527 103.336V209H484.961V103.336H515.527ZM483.105 75.9922C483.105 71.5651 484.668 67.9518 487.793 65.1523C490.918 62.2878 495.02 60.8555 500.098 60.8555C505.176 60.8555 509.277 62.2878 512.402 65.1523C515.592 67.9518 517.188 71.5651 517.188 75.9922C517.188 80.3542 515.592 83.9674 512.402 86.832C509.277 89.6315 505.176 91.0312 500.098 91.0312C495.02 91.0312 490.918 89.6315 487.793 86.832C484.668 83.9674 483.105 80.3542 483.105 75.9922ZM586.75 179.605C586.75 177.652 586.132 175.927 584.895 174.43C583.723 172.932 581.574 171.565 578.449 170.328C575.389 169.091 571.06 167.854 565.461 166.617C560.188 165.51 555.272 164.078 550.715 162.32C546.158 160.497 542.186 158.316 538.801 155.777C535.415 153.173 532.779 150.113 530.891 146.598C529.003 143.017 528.059 138.948 528.059 134.391C528.059 129.964 529.003 125.764 530.891 121.793C532.844 117.822 535.643 114.306 539.289 111.246C543 108.186 547.492 105.777 552.766 104.02C558.104 102.262 564.159 101.383 570.93 101.383C580.24 101.383 588.28 102.848 595.051 105.777C601.822 108.642 607.03 112.678 610.676 117.887C614.322 123.03 616.145 128.922 616.145 135.562H585.676C585.676 132.828 585.155 130.452 584.113 128.434C583.072 126.415 581.477 124.853 579.328 123.746C577.18 122.574 574.348 121.988 570.832 121.988C568.098 121.988 565.689 122.477 563.605 123.453C561.587 124.365 559.992 125.634 558.82 127.262C557.714 128.889 557.16 130.777 557.16 132.926C557.16 134.423 557.486 135.79 558.137 137.027C558.853 138.199 559.927 139.306 561.359 140.348C562.857 141.324 564.777 142.203 567.121 142.984C569.53 143.766 572.46 144.514 575.91 145.23C583.267 146.598 589.973 148.518 596.027 150.992C602.147 153.466 607.03 156.884 610.676 161.246C614.387 165.608 616.242 171.37 616.242 178.531C616.242 183.219 615.168 187.516 613.02 191.422C610.936 195.328 607.909 198.746 603.938 201.676C599.966 204.605 595.214 206.884 589.68 208.512C584.146 210.139 577.896 210.953 570.93 210.953C560.969 210.953 552.538 209.163 545.637 205.582C538.736 202.001 533.527 197.509 530.012 192.105C526.561 186.637 524.836 181.038 524.836 175.309H553.449C553.579 178.824 554.458 181.689 556.086 183.902C557.779 186.116 559.96 187.743 562.629 188.785C565.298 189.762 568.293 190.25 571.613 190.25C574.934 190.25 577.701 189.794 579.914 188.883C582.128 187.971 583.82 186.734 584.992 185.172C586.164 183.544 586.75 181.689 586.75 179.605ZM679.945 103.336V124.723H617.25V103.336H679.945ZM631.605 77.1641H662.172V175.895C662.172 178.824 662.53 181.07 663.246 182.633C663.962 184.195 665.134 185.302 666.762 185.953C668.389 186.539 670.473 186.832 673.012 186.832C674.835 186.832 676.397 186.767 677.699 186.637C679.001 186.507 680.206 186.344 681.312 186.148V208.219C678.708 209.065 675.941 209.716 673.012 210.172C670.082 210.693 666.892 210.953 663.441 210.953C656.866 210.953 651.169 209.879 646.352 207.73C641.599 205.582 637.953 202.197 635.414 197.574C632.875 192.887 631.605 186.799 631.605 179.312V77.1641ZM743.551 183.805V138.492C743.551 135.302 743.062 132.568 742.086 130.289C741.109 128.01 739.579 126.22 737.496 124.918C735.413 123.616 732.711 122.965 729.391 122.965C726.591 122.965 724.15 123.453 722.066 124.43C720.048 125.406 718.486 126.806 717.379 128.629C716.337 130.452 715.816 132.698 715.816 135.367H685.348C685.348 130.615 686.422 126.188 688.57 122.086C690.719 117.984 693.779 114.371 697.75 111.246C701.786 108.121 706.604 105.712 712.203 104.02C717.802 102.262 724.085 101.383 731.051 101.383C739.319 101.383 746.676 102.783 753.121 105.582C759.632 108.316 764.775 112.451 768.551 117.984C772.327 123.453 774.215 130.354 774.215 138.688V182.926C774.215 189.306 774.573 194.319 775.289 197.965C776.07 201.546 777.177 204.671 778.609 207.34V209H747.848C746.415 205.94 745.341 202.164 744.625 197.672C743.909 193.115 743.551 188.492 743.551 183.805ZM747.359 144.547L747.555 161.344H732.418C729.033 161.344 726.103 161.767 723.629 162.613C721.22 163.46 719.267 164.632 717.77 166.129C716.272 167.561 715.165 169.254 714.449 171.207C713.798 173.095 713.473 175.178 713.473 177.457C713.473 179.605 713.993 181.559 715.035 183.316C716.077 185.009 717.509 186.344 719.332 187.32C721.155 188.297 723.271 188.785 725.68 188.785C729.651 188.785 733.036 188.004 735.836 186.441C738.701 184.879 740.914 182.991 742.477 180.777C744.039 178.499 744.82 176.383 744.82 174.43L752.145 187.125C750.973 189.729 749.54 192.431 747.848 195.23C746.155 197.965 744.007 200.536 741.402 202.945C738.798 205.289 735.641 207.21 731.93 208.707C728.284 210.204 723.889 210.953 718.746 210.953C712.105 210.953 706.083 209.618 700.68 206.949C695.276 204.215 690.947 200.471 687.691 195.719C684.501 190.966 682.906 185.497 682.906 179.312C682.906 173.779 683.915 168.863 685.934 164.566C687.952 160.27 690.979 156.624 695.016 153.629C699.117 150.634 704.26 148.388 710.445 146.891C716.63 145.328 723.857 144.547 732.125 144.547H747.359Z" fill="url(#paint0_angular_8_83)" fill-opacity="0.2"/>
<path d="M53 209V49.5V2H117.83C217.371 1.99993 221 46.9999 221 73.5V87C218.55 138.2 191.167 152.333 172.96 152.5H111.704L111.704 209H53Z" fill="#B6B6B6"/>
<path d="M53 209V49.5V2H117.83C217.371 1.99993 221 46.9999 221 73.5V87C218.55 138.2 191.167 152.333 172.96 152.5H111.704L111.704 209H53Z" fill="url(#paint1_angular_8_83)" fill-opacity="0.2"/>
<path d="M150 107.5H107V48H149.5C161.5 50 165.833 60.5 166.5 65.5C166.833 69.3333 167.3 79.9 166.5 91.5C165.7 103.1 155.167 107 150 107.5Z" fill="black"/>
<path d="M204.878 19.9823C220.606 39.9699 221.515 70.6217 220.849 82.6548C214.061 49.7643 102.561 45.8869 47.6587 48.0596H39.1739C1.641 47.6585 -2.08567 17.4753 0.742607 2.43392L87.5874 0.9298C120.695 -1.5771 189.013 -0.178604 204.878 19.9823Z" fill="url(#paint2_linear_8_83)"/>
<defs>
<radialGradient id="paint0_angular_8_83" cx="0" cy="0" r="1" gradientUnits="userSpaceOnUse" gradientTransform="translate(251 150.5) rotate(0.526601) scale(544.023 599.536)">
<stop/>
<stop offset="0.968658" stop-opacity="0.0411884"/>
<stop offset="1" stop-opacity="0"/>
</radialGradient>
<radialGradient id="paint1_angular_8_83" cx="0" cy="0" r="1" gradientUnits="userSpaceOnUse" gradientTransform="translate(24.5 125.5) rotate(6.22196) scale(133.788 178.239)">
<stop/>
<stop offset="1" stop-opacity="0"/>
</radialGradient>
<linearGradient id="paint2_linear_8_83" x1="11.9786" y1="9.88709" x2="214.7" y2="54.1247" gradientUnits="userSpaceOnUse">
<stop stop-color="#EC3535"/>
<stop offset="1" stop-color="#ECCF35"/>
</linearGradient>
</defs>
</svg>
