<svg width="271" height="78" viewBox="0 0 271 78" fill="none" xmlns="http://www.w3.org/2000/svg">
<path d="M57.3437 14.3927C58.7821 15.6253 60.3753 16.7822 61.6106 18.1142C62.6225 19.2054 62.3056 20.4105 61.0375 21.4227C52.9245 27.8982 45.6301 34.8335 39.1061 42.1914C33.5951 48.4068 28.5155 54.7981 25.2719 61.8496C24.6114 63.2855 24.3492 64.8536 24.2265 66.3744C24.1073 67.8517 24.9506 68.1896 26.9967 67.9708C27.68 67.8978 28.4221 68.1148 29.1373 68.1992C28.8589 68.6489 28.7133 69.1854 28.281 69.5346C24.5465 72.5513 20.1521 74.986 15.4343 77.135C12.9799 78.2531 10.5517 78.3018 8.09404 77.1964C6.32319 76.3999 4.43779 75.6996 2.83842 74.748C-0.687496 72.6502 -0.50826 71.8633 1.108 68.1377C3.82885 61.866 7.98126 56.018 12.2823 50.2835C19.6607 40.446 27.4553 30.7632 37.0776 21.9505C40.0124 19.2627 43.1562 16.6954 46.2962 13.9938C43.1692 14.1152 39.9252 14.1391 36.715 14.3905C32.2952 14.7366 27.8853 15.1877 23.5014 15.7241C20.8349 16.0503 18.2279 16.6298 15.5888 17.0789C14.6714 17.235 13.7425 17.4289 12.8109 17.4549C9.32721 17.5522 7.39407 16.1047 7.63094 13.551C7.75145 12.2516 7.78705 10.8897 8.36654 9.68429C9.35298 7.63239 12.3111 7.39863 14.6485 6.79602C24.1759 4.33977 34.1017 3.18214 44.0797 2.15504C57.0386 0.821104 70.0441 0.0455954 83.1259 0.00026462C85.821 -0.00907443 88.5341 0.230146 91.2106 0.501913C94.5795 0.843991 95.4161 1.58011 95.5374 4.06948C95.6117 5.59509 95.5511 7.12416 95.5511 8.74431C96.2182 8.37558 97.0053 7.95832 97.7657 7.51678C99.8439 6.31009 102.341 6.54181 104.587 6.80891C106.659 7.05537 108.709 7.7878 110.55 8.57585C112.697 9.49506 113.312 11.3107 111.879 12.7853C110.263 14.4472 108.371 16.018 106.287 17.3756C103.955 18.8943 101.317 20.1745 98.7323 21.4744C96.4747 22.6099 93.9917 22.8744 91.4405 21.979C89.5588 21.3185 87.5723 20.7401 85.9068 19.8532C84.471 19.0886 84.0404 17.9189 85.4721 16.7458C86.1384 16.1998 86.6841 15.5762 87.6446 14.6348C77.4296 14.3498 67.5858 14.0751 57.4291 13.7914C56.9432 13.8124 56.7703 13.8424 56.5973 13.8724C56.8461 14.0458 57.0949 14.2193 57.3437 14.3927Z" fill="url(#paint0_linear_8_124)"/>
<path d="M92.4213 55.9596C96.707 52.2529 100.932 48.5075 105.303 44.855C107.663 42.8828 110.287 41.078 112.77 39.182C115.261 37.2795 117.573 35.237 120.235 33.472C124.338 30.7513 128.663 28.2068 132.913 25.6036C135.12 24.2518 137.584 23.87 140.237 24.8335C142.401 25.6197 144.591 26.399 146.61 27.3576C148.335 28.1761 148.349 29.0795 147.23 30.1488C141.393 35.7279 135.384 41.2206 129.829 46.9448C124.563 52.3701 119.748 58.0279 114.827 63.6266C114.054 64.5071 113.773 65.6166 113.144 66.8588C115.62 66.351 117.567 65.9518 119.513 65.5527C119.665 65.7214 119.818 65.8902 119.971 66.0589C118.685 67.2333 117.56 68.5304 116.079 69.5563C113.146 71.5877 110.132 73.5776 106.933 75.3799C104.163 76.9404 101.128 76.6254 98.4163 75.1464C95.5298 73.572 92.5966 71.884 93.3822 68.8226C93.766 67.3272 94.4816 65.8238 95.4337 64.4672C100.45 57.3204 106.232 50.5125 112.941 44.1289C113.349 43.74 113.617 43.2726 113.703 42.595C113.14 42.9236 112.496 43.2001 112.029 43.5892C108.125 46.8428 104.056 50.0053 100.416 53.4091C93.5594 59.8205 86.9469 66.3697 80.2585 72.8755C79.4199 73.6912 78.6424 74.5561 78.0045 75.4606C77.2114 76.5852 75.8602 76.5185 74.667 76.2419C71.2996 75.4612 67.0185 71.1011 67.2912 68.5302C67.438 67.1464 68.1167 65.7259 68.9484 64.458C73.1018 58.1265 78.2078 52.1985 83.8903 46.5385C88.0407 42.4045 92.2058 38.2719 96.6026 34.277C99.874 31.3048 103.509 28.5427 107.018 25.7103C108.529 24.4907 110.386 23.8181 112.615 24.5735C115.254 25.4678 117.983 26.3091 120.354 27.5068C122.547 28.6148 122.346 28.9642 120.489 30.3501C109.949 38.2164 100.373 46.6603 91.6219 55.8301C90.5166 56.9825 89.5561 57.9885 88.5955 58.9946C88.7605 59.091 88.9255 59.1875 89.0905 59.284C90.2008 58.1759 91.311 57.0678 92.4213 55.9596Z" fill="url(#paint1_linear_8_124)"/>
<path d="M171.732 38.8414C177.803 33.6348 184.159 28.8047 192.385 25.5271C194.106 24.8417 195.969 24.3354 197.799 23.808C200.966 22.896 203.735 23.6455 206.263 25.0395C208.2 26.1078 210.055 27.2546 211.939 28.3624C215.431 25.8845 216.94 26.1221 220.99 27.4104C222.78 27.9795 224.471 28.7677 226.05 29.6111C227.445 30.3561 227.583 31.2651 226.346 32.3632C216.38 41.2073 207.332 50.5335 199.006 60.2266C197.671 61.7816 196.699 63.5062 195.643 65.1802C195.347 65.6481 195.35 66.2153 195.197 66.8121C197.404 66.3662 199.339 65.9756 201.273 65.585C201.433 65.7692 201.594 65.9535 201.755 66.1377C200.39 67.3204 199.155 68.6019 197.631 69.6644C194.848 71.6045 191.984 73.4966 188.984 75.2559C186.147 76.9193 183.133 76.5863 180.239 75.1774C177.055 73.6274 174.356 71.8476 175.216 68.6862C175.514 67.592 176.146 66.5431 176.67 65.485C177.021 64.7751 177.449 64.0853 177.843 63.3865C177.704 63.3147 177.565 63.2428 177.426 63.171C176.948 63.5018 176.465 63.8292 175.992 64.164C170.848 67.8061 165.753 71.4853 160.542 75.0765C158.103 76.7579 156.169 76.7104 153.218 75.3715C150.707 74.2323 148.45 72.8958 147.775 70.7394C147.459 69.7284 147.673 68.4992 148.166 67.505C153.439 56.8775 161.939 47.6336 171.732 38.8414ZM201.378 32.7711C199.71 33.7443 197.94 34.6385 196.392 35.7035C185.146 43.4423 175.955 52.3388 168.411 62.1467C167.721 63.0437 167.203 64.018 166.711 64.9846C166.496 65.4069 166.546 65.9006 166.437 66.6152C167.118 66.2539 167.462 66.1178 167.727 65.9242C176.722 59.3483 186.292 53.1581 193.36 45.3054C195.627 42.7872 198.184 40.4003 200.738 38.0271C203.442 35.5142 206.301 33.0892 209.208 30.5246C206.199 30.586 203.884 31.5799 201.378 32.7711Z" fill="url(#paint2_linear_8_124)"/>
<path d="M243.625 48.6005C240.64 47.4666 240.588 47.0428 242.796 45.374C246.763 42.3767 250.794 39.4176 254.563 36.2929C256.818 34.4232 258.627 32.2694 260.637 30.2433C260.465 30.0779 260.293 29.9125 260.121 29.7472C259.128 30.163 257.998 30.4678 257.164 31.0122C250.23 35.539 243.641 40.3128 238.038 45.7492C237.174 46.5871 236.537 47.5784 236.007 48.5592C235.418 49.649 236.066 50.1378 237.678 50.3188C240.447 50.6297 243.269 50.8699 245.932 51.4648C251.729 52.7599 253.91 55.919 251.964 60.0938C250.178 63.9241 246.742 66.9853 242.453 69.4521C239.056 71.4059 235.363 73.1025 231.689 74.783C229.158 75.9402 226.155 75.6887 223.471 75.3374C218.201 74.6477 213.176 73.3205 208.841 70.9022C206.52 69.6079 204.564 68.0605 203.559 66.0564C202.486 63.9165 203.225 61.7517 204.683 59.9027C206.158 58.033 207.993 56.2086 210.185 54.7823C211.488 53.9351 213.766 53.6194 215.639 53.5531C218.905 53.4375 222.138 53.8451 225.076 55.0719C227.691 56.1637 227.742 56.9692 226.01 58.6975C223.344 61.3572 220.94 64.1587 218.547 66.9555C217.998 67.597 217.949 68.464 217.67 69.2272C217.832 69.2896 217.993 69.3519 218.155 69.4143C219.206 68.8856 220.37 68.4435 221.289 67.8131C225.225 65.1124 229.183 62.4221 232.934 59.5888C234.477 58.4235 235.593 56.9404 236.76 55.5389C237.605 54.5235 236.935 53.8218 235.428 53.6549C233.802 53.4747 232.141 53.4735 230.507 53.3236C226.508 52.9565 222.504 52.5708 220.081 49.7566C218.539 47.9659 218.817 46.0873 219.848 44.2902C223 38.791 228.285 34.4781 234.568 30.77C237.666 28.9419 240.756 27.0901 244.04 25.4496C251.225 21.8601 255.696 22.4416 263.286 26.3597C265.669 27.5896 267.622 29.2939 269.597 30.8948C271.164 32.1656 271.345 33.7229 270.504 35.3284C267.801 40.4836 263.405 44.7512 257.274 47.9616C253.096 50.1499 248.411 49.818 243.625 48.6005Z" fill="url(#paint3_linear_8_124)"/>
<path d="M152.891 30.8244C155.874 27.8184 158.839 24.9156 162.008 21.813C159.487 21.813 157.158 21.813 154.403 21.813C154.549 20.799 154.353 19.8887 154.829 19.2378C157.207 15.9852 160.3 13.3729 166.08 13.8364C169.231 14.089 171.571 13.5143 173.606 11.4872C175.728 9.37422 178.595 7.64557 181.226 5.8176C182.629 4.84314 184.367 4.37488 186.27 5.05392C188.881 5.98501 191.581 6.83841 193.978 8.01077C195.803 8.90335 195.645 9.58386 194.173 10.7773C193.014 11.7162 191.857 12.6556 190.423 13.8186C192.691 13.8186 194.653 13.7951 196.613 13.8247C198.959 13.8601 199.454 14.463 198.09 15.8633C196.613 17.379 194.993 18.8347 193.265 20.2036C191.739 21.4126 189.626 21.9488 187.426 21.7045C183.172 21.2323 180.569 22.4744 178.004 24.9818C166.48 36.2473 155.076 47.5601 145.328 59.7011C144.027 61.3213 142.908 63.0217 141.787 64.7136C141.383 65.3233 141.22 66.0174 140.842 66.924C143.173 66.4547 145.125 66.0615 147.078 65.6683C147.196 65.8191 147.315 65.9698 147.434 66.1205C146.622 66.9276 145.946 67.8368 144.973 68.5229C141.916 70.677 138.886 72.8715 135.589 74.8206C130.618 77.7589 126.544 76.1953 122.622 73.146C121.986 72.6515 121.473 72.0572 121.009 71.4655C120.116 70.3285 120.483 69.1556 121.215 68.0976C124.056 63.996 126.657 59.7807 129.95 55.8759C135.425 49.3825 141.336 43.0817 147.127 36.7305C148.937 34.7455 150.952 32.8592 152.891 30.8244Z" fill="url(#paint4_linear_8_124)"/>
<path d="M45.4131 75.432C42.6804 74.1816 40.2376 72.806 39.7936 70.4535C39.5826 69.3357 39.844 67.9853 40.5569 66.9924C43.9193 62.3096 47.231 57.5856 51.0973 53.1215C55.4481 48.098 60.1607 43.2195 65.112 38.4971C69.4599 34.3502 74.3558 30.5065 79.0085 26.5281C81.3911 24.4909 84.2687 23.8693 87.5926 25.1475C89.7195 25.9654 91.7743 26.9104 93.7166 27.9423C94.8175 28.5272 94.6305 29.3786 93.7976 30.1798C87.064 36.6562 80.2154 43.0732 73.6885 49.6582C69.5043 53.8795 65.7453 58.3272 61.9297 62.7347C60.9256 63.8945 60.4193 65.2818 59.4866 66.9099C62.1263 66.3713 64.0627 65.9762 65.9992 65.5811C66.1189 65.7416 66.2386 65.9021 66.3583 66.0626C65.6417 66.7931 65.0236 67.5899 64.1912 68.2426C60.7338 70.9539 57.405 73.7596 52.8233 75.5808C50.2876 76.5888 47.939 76.5451 45.4131 75.432Z" fill="url(#paint5_linear_8_124)"/>
<defs>
<linearGradient id="paint0_linear_8_124" x1="38.5728" y1="28.8688" x2="126.178" y2="54.4349" gradientUnits="userSpaceOnUse">
<stop stop-color="#FF0D0D"/>
<stop offset="0.96875" stop-color="#FFCA0D"/>
</linearGradient>
<linearGradient id="paint1_linear_8_124" x1="163.448" y1="49.2467" x2="36.428" y2="61.7939" gradientUnits="userSpaceOnUse">
<stop stop-color="#FFD600"/>
<stop offset="1" stop-color="#FF2E00"/>
</linearGradient>
<linearGradient id="paint2_linear_8_124" x1="63.7035" y1="51.2279" x2="208.531" y2="57.1234" gradientUnits="userSpaceOnUse">
<stop stop-color="#F80000"/>
<stop offset="1" stop-color="#F8EE00"/>
</linearGradient>
<linearGradient id="paint3_linear_8_124" x1="83.1851" y1="41.3219" x2="225.389" y2="42.931" gradientUnits="userSpaceOnUse">
<stop stop-color="#FF0000"/>
<stop offset="1" stop-color="#FFE600"/>
</linearGradient>
<linearGradient id="paint4_linear_8_124" x1="50.4564" y1="34.2462" x2="178.014" y2="70.711" gradientUnits="userSpaceOnUse">
<stop stop-color="#F80000"/>
<stop offset="1" stop-color="#F8DF00"/>
</linearGradient>
<linearGradient id="paint5_linear_8_124" x1="138.901" y1="45.7089" x2="36.7143" y2="8.01042" gradientUnits="userSpaceOnUse">
<stop stop-color="#EBFF00"/>
<stop offset="1" stop-color="#FF0000"/>
</linearGradient>
</defs>
</svg>
